<?xml version="1.0" encoding="UTF-8"?>
<svg id="Layer_1" data-name="Layer 1" xmlns="http://www.w3.org/2000/svg" viewBox="0 0 1920 1080">
  <defs>
    <style>
      .cls-1 {
        fill: #fff;
        stroke-width: 0px;
      }
    </style>
  </defs>
  <path class="cls-1" d="m383.71,633.37l69.69-189.39h20.48l-69.69,189.39h-20.48Z"/>
  <path class="cls-1" d="m539.85,601.45v-89.38h-23.41v-15.96h23.41v-41.5h22.08v41.5h32.98v15.96h-32.98v89.91c0,13.3,4.52,16.49,18.62,16.49l14.36-.53v15.43c-5.32.53-14.1,1.33-18.89,1.33-26.33,0-36.18-7.71-36.18-33.25Z"/>
  <path class="cls-1" d="m655.83,633.37v-137.26h21.01v32.45c7.45-23.94,19.95-33.78,40.43-33.78,3.72,0,8.51.53,12.5,1.33v19.15l-13.3-.53c-23.41,0-38.57,18.62-38.57,52.4v66.23h-22.08Z"/>
  <path class="cls-1" d="m776.87,564.74c0-43.89,23.41-71.29,65.7-71.29s65.97,27.4,65.97,71.29-23.41,71.29-65.97,71.29-65.7-27.13-65.7-71.29Zm109.59,0c0-35.91-15.96-54.26-43.89-54.26s-43.62,18.35-43.62,54.26,15.96,54.26,43.62,54.26,43.89-18.35,43.89-54.26Z"/>
  <path class="cls-1" d="m966,564.74c0-43.89,23.41-71.29,65.7-71.29s65.97,27.4,65.97,71.29-23.41,71.29-65.97,71.29-65.7-27.13-65.7-71.29Zm109.59,0c0-35.91-15.96-54.26-43.89-54.26s-43.62,18.35-43.62,54.26,15.96,54.26,43.62,54.26,43.89-18.35,43.89-54.26Z"/>
  <path class="cls-1" d="m1169.76,601.45v-89.38h-23.41v-15.96h23.41v-41.5h22.08v41.5h32.98v15.96h-32.98v89.91c0,13.3,4.52,16.49,18.62,16.49l14.36-.53v15.43c-5.32.53-14.1,1.33-18.89,1.33-26.33,0-36.18-7.71-36.18-33.25Z"/>
  <path class="cls-1" d="m1271.64,633.37l69.69-189.39h20.48l-69.69,189.39h-20.48Z"/>
  <path class="cls-1" d="m1466.82,633.37l10.7-60.76c.36-2.9.54-5.44.54-7.8-.18-12.51-7.44-19.04-20.86-19.04-16.32,0-30.83,11.79-34.46,33.19l-9.61,54.41h-9.25l16.32-93.58h9.07l-2.9,16.14c7.44-11.43,19.22-17.95,32.28-17.95,17.77,0,29.02,8.34,29.02,25.39,0,2.54-.18,5.26-.72,8.16l-10.88,61.84h-9.25Z"/>
  <path class="cls-1" d="m1522.69,629.2c0-3.99,2.72-6.89,7.62-6.89,3.81,0,5.99,2.18,5.99,5.08,0,3.99-2.72,6.89-7.62,6.89-3.81,0-5.98-2.18-5.98-5.08Z"/>
</svg>